<svg xmlns="http://www.w3.org/2000/svg" viewBox="0 0 1200 640" fill="none">
  <rect width="1200" height="640" rx="28" fill="#f8f2e7"/>
  <g opacity="0.18" stroke="#9fb9b3" stroke-width="1">
    <path d="M0 160h1200M0 320h1200M0 480h1200"/>
    <path d="M150 0v640M300 0v640M450 0v640M600 0v640M750 0v640M900 0v640M1050 0v640"/>
  </g>
  <g fill="#d7ddd2" stroke="#5a6b67" stroke-linejoin="round" stroke-width="6">
    <path d="M98 171l40-18 74 8 37 21 17 33-10 28-42 5-46 27-47 13-43-16-19-39 7-34 32-28z"/>
    <path d="M251 302l37-16 54 17 16 31-19 34-67 14-44-12-11-27 34-41z"/>
    <path d="M322 150l42 5 18 17-3 24-33 21-44-2-15-24 8-25 27-16z"/>
    <path d="M485 126l40-16 56-5 37 19 30 3 27 25 35 5 23 27 42 10 51 27 1 33-23 15-45 3-39 29-7 44-32 24-44-3-37 16-21 31-54 4-26 23 4 56-25 7-48-35-15-42-46-29-2-41-35-38 6-25 30-10 32-44 47-22 34-33 18-35z"/>
    <path d="M559 377l34 7 16 22-7 31-28 31 4 40-18 23-40-20-17-47 10-34 23-28 23-25z"/>
    <path d="M810 155l36-10 37 8 20 21 31 7 16 30-17 15-31 1-20 15-44 0-38-18-10-31 20-38z"/>
    <path d="M845 275l34 4 31 22 53-7 67 17 52 35 2 34-36 7-45-20-39 10-14 25-38 4-10 33-23 16-49-2-16 20-28-7-12-32 14-50 11-62-21-31 7-33 50-23z"/>
    <path d="M909 488l35-6 44 14 33 25 9 30-20 15-44-6-39-27-25-26 7-19z"/>
    <path d="M1033 503l38 5 30 23-11 23-30 1-27-20-5-18 5-14z"/>
    <path d="M1097 554l18 5 10 18-10 17-22 1-8-18 12-23z"/>
    <path d="M624 157l18-10 16 4 4 14-13 12-19-7-6-13z"/>
    <path d="M680 530l20-5 16 8-4 15-18 8-15-10 1-16z"/>
  </g>
</svg>
